<svg width="42" height="43" viewBox="0 0 42 43" fill="none" xmlns="http://www.w3.org/2000/svg">
<path fill-rule="evenodd" clip-rule="evenodd" d="M37.7039 8.94743C35.8791 10.377 34.0322 11.661 32.2042 13.0968C32.5383 13.6123 32.8976 14.1215 33.1781 14.6434C35.192 13.5586 37.2028 12.4611 39.1947 11.2878C41.861 16.25 42.5544 21.4367 41.1204 26.867C38.8984 26.206 36.6985 25.7126 34.4829 25.0706C34.3505 25.6494 34.1141 26.244 33.9219 26.8322C36.0304 27.8221 38.1231 28.5274 40.2316 29.511C38.5265 34.3277 33.3514 39.2108 29.3803 40.6783C28.4127 38.5941 27.5271 36.5005 26.6036 34.4099C26.0079 34.5459 25.4375 34.8812 24.8481 34.9919C25.4406 37.2026 26.1245 39.4069 26.7391 41.6145C21.7941 43.044 16.6631 42.8858 11.2359 40.0616C12.2917 38.0312 13.3759 35.9976 14.4033 33.9703C13.8801 33.6889 13.3412 33.3157 12.8086 33.0057C11.5006 34.8812 10.1202 36.763 8.87523 38.6321C4.00268 35.1532 1.57272 30.6337 0.548409 26.3262C0.472768 26.0321 0.362458 25.5007 0.362458 25.4976C0.428644 25.3932 1.86898 25.2161 2.06753 25.1782C3.79467 24.8398 5.45562 24.4697 7.11657 24.1819C7.07875 23.5779 6.86444 22.9928 6.95584 22.3729C4.62987 22.3666 2.33543 22.6797 0.00946683 22.6923C-0.100843 17.9642 0.718602 13.1285 4.98602 7.90376C6.7888 9.38388 8.52224 10.8703 10.1926 12.3663C10.6433 11.9899 11.072 11.3795 11.529 11.0696C10.1328 9.33012 8.44344 7.62545 6.96529 5.89864C11.5762 1.77454 16.5087 0.474694 21.5955 0.499995C21.564 2.79608 21.4852 5.09849 21.3592 7.40722C21.9863 7.46731 22.6135 7.5021 23.247 7.61596C23.6536 5.33252 23.9341 3.0649 24.4226 0.771983C26.9629 1.26852 29.8278 2.22048 32.6328 4.13072C34.6405 5.49382 36.3739 7.20165 37.7039 8.94743ZM33.6508 7.15737C32.5131 8.45722 31.3753 9.77289 30.2344 10.9842C30.5212 11.291 30.8332 11.5977 31.1799 11.895C32.428 10.6426 33.6823 9.56099 34.9304 8.32756C34.4955 7.96069 34.0605 7.38509 33.654 7.15421M29.79 4.45331C28.7184 6.49954 27.672 8.54578 26.5847 10.592C23.3889 8.90316 20.3916 8.96641 17.4605 9.63057C16.8837 7.41671 16.2124 5.21234 15.5695 3.00798C14.7721 3.33373 13.9589 3.53298 13.1773 3.91566C14.0566 6.02515 15.0683 8.11566 15.9161 10.2283C13.6059 11.1518 10.637 13.9128 9.54654 16.8098C7.42544 15.8926 5.30749 15.0292 3.199 14.1753C2.85861 14.9754 2.63799 15.7693 2.36379 16.5631C4.60781 17.2842 6.81401 17.7175 9.05172 18.3974C8.21022 21.5632 8.7334 24.5741 10.1138 27.4901C8.12827 28.6634 6.12063 29.6312 4.14766 30.8836C4.63618 31.5762 5.01123 32.2846 5.52811 32.9773C7.39708 31.6995 9.24398 30.1182 11.1255 28.9038C12.9189 31.4845 16.3763 33.303 18.9008 33.6699C18.4281 35.9312 18.1759 38.1672 17.7126 40.4285C18.5762 40.5676 19.4492 40.7542 20.2813 40.6467C20.4199 38.3538 20.3853 36.0767 20.5618 33.7774C23.559 33.9229 26.4176 32.8919 29.1533 30.7223C30.6693 32.4206 32.1821 34.1158 33.7107 35.811C34.3095 35.2702 34.9052 34.7104 35.4914 33.9545C33.8305 32.4459 31.8953 30.9626 30.3226 29.4446C32.7431 26.38 33.2695 23.5336 33.1938 20.7536C35.4757 20.7125 37.7417 20.4816 40.0141 20.4057C40.0519 19.5202 39.8755 18.6663 39.7179 17.806C37.4738 18.2931 35.2235 18.7327 32.9701 19.1248C32.3807 16.4461 31.1767 13.8369 28.0376 11.4459C29.3015 9.5768 30.7103 7.69186 31.971 5.81957C31.224 5.20918 30.5086 4.87078 29.7868 4.45331M27.7823 3.53298C27.2749 3.35903 26.7549 3.17243 26.2412 2.989C25.6738 4.6399 25.3398 6.25918 24.763 7.91009C25.1853 8.15993 25.5887 8.239 25.9953 8.36234C26.5343 6.75888 27.2875 5.13012 27.7823 3.52981M33.903 16.133C34.0668 16.5093 34.111 16.9015 34.3694 17.2684C35.9862 16.7054 37.6188 16.3006 39.2262 15.6554C38.9772 15.1462 38.8795 14.6181 38.6274 14.1089C37.0547 14.8078 35.4694 15.355 33.903 16.133ZM17.6811 2.55888C18.0656 4.25722 18.1822 5.98403 18.6329 7.67289C19.0174 7.43885 19.4555 7.64126 19.8369 7.41039C19.6068 5.72153 19.5501 4.01686 19.3862 2.32168C18.8252 2.44819 18.2421 2.42921 17.6811 2.55888ZM40.0015 22.5342C38.3311 22.4899 36.6576 22.4077 34.9714 22.2559C34.8768 22.6923 34.7791 23.1256 34.8611 23.5431C36.1218 23.7233 37.4234 23.9194 38.6116 24.0934C39.0245 24.1535 39.4689 24.2831 39.8881 24.2041C39.97 23.6443 40.1244 23.075 40.0015 22.5373M9.79868 5.87018C10.8766 7.24909 11.7338 8.65331 12.8023 10.0291C13.1426 9.76024 13.4956 9.63689 13.8266 9.31746C12.9567 7.84367 12.0774 6.37304 11.2516 4.89608C10.7631 5.17756 10.2683 5.44638 9.79868 5.86701M33.2379 28.2681C32.9732 28.6255 32.8629 28.9639 32.554 29.3244C34.0007 30.3712 35.4315 31.3453 36.8656 32.234C37.1366 31.7501 37.4991 31.2536 37.7134 30.7761C36.2226 29.9316 34.7382 29.1663 33.2379 28.2681ZM5.01438 10.7438C4.66139 11.2245 4.45338 11.6863 4.11299 12.1639C5.62581 13.0968 7.12603 13.8369 8.63255 14.7098C8.86262 14.3461 9.1053 13.976 9.2755 13.6187C7.84777 12.6446 6.43265 11.6642 5.01438 10.747M29.0304 32.9899C28.668 33.1986 28.315 33.4485 27.9588 33.6604C28.9264 35.1215 29.6355 36.6143 30.6157 38.0723C31.0948 37.8098 31.5675 37.5125 32.0403 37.1488C30.9624 35.7699 30.1083 34.3657 29.0304 32.9899ZM7.06615 19.5581C5.32955 19.1754 3.61187 18.9604 1.89734 18.7833C1.87528 19.3241 1.84691 19.8649 1.74291 20.4152C3.46374 20.586 5.17512 20.6208 6.89595 20.722C6.99996 20.3267 6.95584 19.9503 7.06615 19.5581ZM23.2785 35.3398C23.08 35.4979 22.1502 35.4093 22.0368 35.5675C22.0746 35.5169 22.0588 36.0925 22.0683 36.2C22.1628 37.6327 22.4496 39.4385 22.437 40.6151C22.998 40.6973 23.5307 40.5265 24.0665 40.4727C23.9782 38.7428 23.5212 37.0539 23.2785 35.3398ZM7.50423 25.7063C5.87165 26.2503 4.23276 26.7342 2.60017 27.2813C2.85861 27.8063 2.9248 28.3503 3.24312 28.8658C4.81582 28.1479 6.41059 27.6166 7.96754 26.8449C7.73746 26.4748 7.70909 26.0827 7.50423 25.7095M15.8752 34.6092C15.2606 36.2379 14.5231 37.8762 14.0503 39.486C14.583 39.584 15.1503 39.9509 15.6672 39.9383C16.0359 38.3 16.6568 36.627 17.0161 34.9855C16.6379 34.9191 16.2565 34.7831 15.872 34.606M10.6559 31.1239C9.42363 32.3574 8.18185 33.4611 6.94323 34.644C7.27416 35.0614 7.68073 35.4663 8.18185 35.8648C9.29125 34.5523 10.6181 33.1923 11.592 31.9526C11.1917 31.6869 11.0436 31.3928 10.6528 31.1239" fill="#6BCACA"/>
</svg>
