<?xml version="1.0" standalone="no"?>
<!DOCTYPE svg PUBLIC "-//W3C//DTD SVG 20010904//EN"
 "http://www.w3.org/TR/2001/REC-SVG-20010904/DTD/svg10.dtd">
<svg version="1.0" xmlns="http://www.w3.org/2000/svg"
 width="688.000000pt" height="688.000000pt" viewBox="0 0 688.000000 688.000000"
 preserveAspectRatio="xMidYMid meet">
<metadata>
Created by potrace 1.14, written by Peter Selinger 2001-2017
</metadata>
<g transform="translate(0.000000,688.000000) scale(0.100000,-0.100000)"
fill="#000000" stroke="none">
<path d="M3247 6794 c-1 -1 -38 -5 -82 -8 -44 -4 -96 -8 -115 -11 -19 -3 -55
-7 -80 -10 -67 -9 -158 -24 -180 -30 -8 -2 -31 -6 -50 -9 -19 -3 -71 -15 -115
-26 -44 -12 -91 -24 -105 -26 -98 -20 -411 -139 -559 -213 -209 -106 -492
-287 -596 -383 -16 -15 -33 -28 -36 -28 -3 0 -25 -18 -50 -41 -24 -22 -54 -47
-67 -56 -13 -9 -20 -19 -15 -22 4 -3 26 -26 47 -51 45 -52 159 -180 196 -220
14 -15 57 -62 96 -106 40 -43 83 -91 95 -105 57 -62 152 -170 209 -239 35 -41
67 -76 71 -78 18 -7 6 -23 -97 -127 -102 -103 -107 -106 -123 -88 -10 10 -46
43 -81 73 -34 30 -72 64 -84 75 -49 46 -505 434 -561 478 -5 4 -25 21 -44 37
-19 17 -38 30 -41 30 -10 0 -156 -190 -215 -280 -28 -41 -52 -77 -55 -80 -7
-7 -28 -41 -40 -65 -6 -11 -26 -45 -45 -75 -30 -50 -169 -318 -170 -330 -1 -3
-11 -27 -24 -55 -21 -47 -129 -361 -136 -395 -2 -9 -10 -45 -19 -81 -9 -35
-18 -77 -21 -94 -5 -33 -12 -67 -20 -105 -3 -14 -7 -41 -10 -60 -3 -19 -7 -44
-9 -55 -2 -11 -7 -54 -11 -95 -4 -41 -9 -88 -11 -105 -3 -16 -7 -133 -10 -258
l-6 -228 153 5 c85 3 186 8 224 10 107 7 254 17 310 21 28 2 134 7 238 10
l187 7 1 -59 c0 -32 2 -65 4 -73 4 -16 12 -66 20 -125 3 -19 2 -35 -3 -36 -27
-3 -83 -13 -192 -35 -69 -14 -134 -27 -145 -28 -11 -2 -31 -6 -45 -10 -25 -6
-56 -12 -115 -22 -16 -3 -61 -12 -100 -21 -38 -8 -83 -17 -100 -19 -16 -3 -46
-9 -65 -14 -19 -5 -55 -11 -80 -15 -25 -3 -56 -8 -70 -10 -14 -2 -45 -7 -69
-10 -47 -7 -91 -21 -91 -30 0 -16 35 -162 62 -255 97 -343 233 -647 416 -930
38 -59 160 -228 177 -246 5 -6 24 -28 40 -49 137 -173 425 -445 608 -573 l59
-41 62 92 c70 103 120 176 245 352 46 66 127 181 180 255 52 74 98 136 103
138 4 2 8 10 8 18 0 8 5 14 10 14 6 0 10 6 10 14 0 9 7 12 20 9 11 -3 20 -9
20 -14 0 -5 5 -9 11 -9 6 0 30 -13 54 -30 24 -16 48 -30 54 -30 6 0 11 -3 11
-7 0 -5 18 -17 41 -27 22 -11 42 -23 45 -28 4 -7 -211 -443 -226 -458 -3 -3
-21 -36 -40 -75 -19 -38 -48 -92 -64 -120 -16 -27 -29 -55 -30 -61 -1 -7 -7
-18 -13 -25 -6 -8 -23 -39 -37 -69 -15 -30 -40 -80 -56 -110 -17 -30 -26 -57
-22 -61 30 -30 345 -166 517 -224 82 -27 308 -89 368 -100 64 -12 84 -15 112
-20 17 -3 39 -7 51 -9 11 -2 47 -7 79 -10 32 -4 72 -9 89 -11 17 -3 77 -7 133
-9 56 -2 106 -7 112 -10 6 -4 11 -3 11 3 0 7 8 7 24 1 13 -5 26 -7 28 -4 3 2
60 6 129 9 68 3 147 7 174 11 138 16 189 22 228 30 16 3 38 7 50 9 12 2 33 6
47 9 14 3 39 8 55 12 91 18 241 58 251 65 9 7 -109 442 -211 774 -8 28 -17 59
-20 70 -2 11 -16 62 -30 114 -15 51 -24 95 -21 98 5 5 148 57 219 80 27 8 52
11 56 7 4 -5 49 -106 100 -224 52 -118 102 -233 112 -255 10 -22 54 -121 97
-220 44 -99 92 -206 107 -237 l26 -57 32 12 c76 26 303 149 427 232 74 49 137
92 140 95 3 3 41 34 85 69 282 222 567 529 762 821 82 122 173 278 173 297 0
7 4 13 9 13 5 0 13 10 16 22 4 13 20 50 35 83 15 33 31 71 35 85 4 14 12 30
17 37 6 8 2 16 -14 27 -22 14 -214 99 -308 136 -227 90 -664 273 -678 285 -2
2 16 61 39 131 22 71 42 134 44 140 3 8 17 8 52 -2 139 -38 391 -105 410 -108
13 -3 26 -7 31 -10 5 -3 19 -7 33 -10 47 -10 65 -14 109 -27 25 -7 52 -14 60
-15 15 -3 160 -42 257 -70 29 -9 54 -15 55 -14 2 1 15 -3 31 -9 15 -6 27 -9
27 -7 0 2 11 48 24 102 22 87 30 129 50 245 2 15 7 53 11 85 4 33 9 70 11 84
17 102 23 466 10 615 -15 168 -43 340 -82 505 -18 76 -71 256 -84 285 -5 11
-16 40 -24 65 -13 43 -22 65 -51 135 -7 17 -25 59 -40 95 -24 58 -122 259
-131 269 -3 3 -25 -9 -124 -66 -187 -108 -360 -203 -368 -203 -6 0 -12 -4 -14
-8 -1 -4 -46 -31 -98 -59 -116 -62 -193 -104 -285 -155 -79 -45 -70 -48 -130
48 -16 26 -38 59 -47 73 -10 14 -25 39 -34 55 -16 29 -16 30 14 55 44 38 78
65 94 76 9 6 42 30 74 54 33 25 192 144 354 265 162 122 301 226 309 232 13
10 10 18 -20 55 -18 24 -38 49 -44 55 -5 7 -28 34 -50 60 -44 54 -297 309
-360 364 -34 29 -135 111 -170 137 -6 5 -35 27 -65 49 -299 226 -786 456
-1140 540 -97 23 -192 46 -220 54 -24 7 -36 6 -41 -2 -7 -11 -36 -149 -44
-208 -2 -14 -8 -50 -14 -80 -11 -58 -11 -60 -36 -210 -17 -109 -23 -141 -31
-190 -3 -19 -8 -48 -10 -65 -3 -27 -12 -85 -19 -125 -1 -8 -8 -49 -15 -90 -18
-106 -25 -122 -52 -116 -48 11 -178 25 -256 29 -11 0 -12 31 -7 156 4 86 9
197 11 246 4 91 13 402 17 598 l3 108 -144 -3 c-79 -2 -144 -4 -145 -4z m-61
-312 c1 -9 4 -60 8 -112 7 -92 10 -139 20 -285 4 -64 11 -131 21 -225 2 -19 6
-65 10 -101 4 -39 3 -69 -2 -72 -6 -4 -39 -9 -74 -13 -120 -11 -112 -13 -122
31 -4 22 -12 63 -18 90 -6 28 -12 59 -14 70 -2 11 -6 29 -8 40 -3 11 -7 41
-11 66 -4 25 -9 57 -11 70 -2 13 -9 53 -14 89 -10 64 -23 140 -36 210 -4 19
-8 44 -10 55 -3 11 -7 32 -11 47 -7 30 2 34 81 42 78 8 160 18 163 21 9 8 28
-7 28 -23z m-587 -179 c34 -114 73 -244 75 -258 1 -5 12 -43 24 -82 39 -129
62 -208 67 -228 2 -11 16 -60 30 -110 38 -132 75 -269 75 -277 0 -7 67 -1 80
7 3 2 24 6 46 9 22 4 51 9 64 12 123 26 445 37 605 20 44 -4 82 -9 85 -11 3
-2 26 -6 50 -10 25 -3 59 -10 75 -15 57 -18 175 -51 180 -51 8 0 164 -67 223
-96 29 -14 54 -24 56 -22 5 7 60 107 123 229 162 310 333 639 365 701 l23 47
40 -24 c22 -13 56 -31 75 -41 58 -28 230 -145 230 -155 0 -8 -267 -396 -297
-433 -5 -5 -40 -55 -78 -110 -38 -55 -72 -102 -75 -105 -11 -11 -170 -243
-170 -250 0 -3 28 -27 63 -54 127 -101 397 -389 397 -424 0 -6 4 -12 8 -14 26
-11 174 -276 202 -363 7 -22 16 -44 20 -50 4 -5 17 -44 30 -85 29 -92 26 -80
46 -167 16 -70 18 -73 43 -68 14 3 42 8 61 11 19 2 58 9 85 14 28 6 68 13 90
16 22 3 42 7 45 9 3 2 26 6 50 10 25 3 65 11 90 17 25 5 59 12 75 15 29 4 263
51 295 58 106 25 257 52 262 47 4 -4 12 -36 17 -72 6 -36 13 -75 15 -88 5 -23
17 -139 20 -199 3 -42 -2 -48 -44 -49 -19 -1 -89 -5 -155 -8 -66 -4 -154 -9
-195 -11 -41 -2 -109 -6 -150 -9 -160 -12 -319 -19 -407 -20 -51 -1 -93 -4
-93 -7 0 -3 -11 -4 -24 -2 -24 5 -24 5 -26 -94 -2 -128 -6 -206 -15 -268 -12
-90 -22 -143 -45 -240 -55 -236 -189 -509 -352 -722 l-47 -62 57 -54 c31 -29
79 -74 107 -98 27 -24 55 -48 61 -54 6 -5 80 -68 164 -140 250 -212 373 -318
408 -350 l32 -30 -42 -49 c-24 -27 -88 -94 -143 -148 l-100 -100 -35 40 c-19
21 -64 72 -100 112 -36 40 -76 85 -90 100 -14 15 -54 60 -90 100 -36 40 -76
85 -90 100 -14 15 -52 58 -85 95 -33 38 -67 76 -75 85 -8 9 -48 53 -89 98 -40
45 -76 82 -80 82 -4 0 -16 -8 -27 -18 -10 -10 -41 -33 -69 -52 -27 -18 -52
-37 -55 -40 -3 -4 -27 -20 -53 -36 -27 -16 -61 -37 -75 -46 -15 -9 -43 -25
-62 -35 -19 -9 -37 -19 -40 -23 -11 -12 -224 -110 -240 -110 -6 0 -18 -4 -28
-9 -21 -12 -167 -58 -202 -65 -14 -2 -56 -11 -95 -19 -98 -21 -193 -31 -317
-31 l-108 -1 -1 -25 c-1 -14 -3 -43 -4 -65 -6 -69 -15 -283 -20 -465 -2 -96
-8 -247 -11 -335 -4 -88 -7 -170 -7 -182 -1 -16 -9 -24 -28 -28 -26 -6 -172 1
-219 10 -14 3 -47 7 -73 10 -27 4 -59 10 -73 15 -21 8 -22 13 -14 35 6 15 10
39 10 55 0 16 5 32 10 35 6 4 8 10 6 13 -2 4 0 30 5 57 5 28 12 66 15 85 3 19
12 76 20 125 8 50 17 101 19 115 2 14 9 57 15 95 7 39 13 79 15 90 3 23 7 42
41 228 14 75 23 141 20 146 -3 4 -22 11 -43 14 -70 11 -98 18 -218 58 -113 38
-386 163 -393 181 -2 4 -8 8 -13 8 -10 0 -185 115 -205 134 -6 6 -26 22 -44
36 -69 53 -166 145 -225 215 -22 26 -46 53 -52 60 -7 8 -13 16 -13 20 0 8 -27
35 -35 35 -7 0 -196 -128 -205 -139 -3 -3 -27 -22 -55 -41 -27 -19 -59 -42
-69 -52 -11 -10 -23 -18 -26 -18 -4 0 -16 -8 -28 -18 -45 -38 -63 -52 -232
-178 -96 -72 -197 -145 -224 -163 -47 -33 -49 -33 -66 -15 -21 22 -200 302
-200 312 0 10 194 124 435 257 83 45 166 91 185 102 19 11 67 37 105 58 39 20
105 57 147 82 l76 44 -20 47 c-11 26 -29 65 -39 88 -43 96 -114 325 -134 429
-3 17 -8 44 -11 60 -41 214 -36 530 12 735 21 89 23 100 20 100 -2 0 -86 23
-187 50 -101 28 -193 52 -204 55 -11 2 -30 6 -43 9 -12 4 -31 8 -42 10 -11 3
-24 7 -28 10 -5 3 -22 7 -38 10 -16 3 -119 31 -229 61 -110 31 -218 61 -240
66 -22 6 -43 13 -48 18 -4 4 17 79 47 167 63 187 76 216 90 210 6 -2 58 -23
116 -46 120 -48 623 -257 780 -324 l105 -45 46 98 c43 92 128 235 173 292 12
14 35 43 51 65 52 67 125 147 209 227 84 81 296 247 315 247 6 0 11 5 11 10 0
6 6 10 14 10 8 0 16 4 18 8 2 5 44 29 94 54 l91 44 -44 105 c-51 119 -212 487
-250 569 -14 30 -47 107 -74 170 -27 63 -54 123 -60 133 -16 29 2 41 109 80
89 32 254 94 259 96 1 1 15 -43 32 -96z m1824 48 c53 -19 97 -38 97 -43 0 -20
-272 -753 -284 -764 -4 -5 -152 48 -172 61 -19 12 -22 19 -15 38 9 22 19 51
22 65 1 4 10 32 21 62 10 30 20 63 23 75 2 11 14 52 25 90 12 39 23 77 25 85
22 82 56 200 64 223 6 15 8 27 5 27 -2 0 0 9 6 21 6 11 13 28 15 37 2 9 8 29
14 44 11 30 3 32 154 -21z m-2445 -424 c51 -89 103 -180 115 -202 12 -22 24
-42 27 -45 3 -3 11 -16 18 -30 13 -27 34 -62 42 -70 3 -3 12 -18 20 -35 8 -16
17 -32 20 -35 4 -3 21 -32 39 -64 l33 -59 -23 -19 c-13 -10 -51 -34 -83 -54
l-60 -35 -18 23 c-10 13 -30 41 -45 63 -16 22 -30 42 -33 45 -7 6 -151 209
-165 231 -14 24 -96 139 -111 158 -7 9 -34 44 -60 79 l-47 63 31 25 c42 35
184 124 197 124 5 0 52 -74 103 -163z m3596 -288 l95 -92 -49 -47 c-45 -43
-229 -216 -334 -313 -23 -21 -80 -77 -129 -124 l-87 -86 -23 19 c-12 10 -46
43 -75 73 l-54 53 29 31 c15 17 42 46 58 63 17 17 55 60 85 95 30 34 64 72 75
83 11 12 69 77 129 146 157 181 166 190 176 190 5 0 52 -41 104 -91z m-4644
-509 c3 -3 106 -72 230 -155 124 -82 227 -152 230 -155 3 -3 42 -30 87 -60 66
-44 81 -59 76 -74 -4 -16 -76 -141 -88 -154 -2 -2 -74 36 -162 83 -87 48 -192
106 -233 128 -41 22 -88 50 -105 61 -16 12 -31 20 -33 18 -1 -1 -45 23 -97 54
l-95 57 22 36 c12 20 30 48 40 63 10 14 18 31 18 37 0 6 5 11 10 11 6 0 10 5
10 11 0 6 9 24 21 40 18 25 22 27 42 16 12 -6 24 -14 27 -17z m5348 -552 c32
-72 75 -199 69 -204 -4 -5 -189 -73 -212 -79 -5 -1 -17 -5 -25 -8 -8 -4 -80
-27 -160 -51 -80 -25 -196 -61 -259 -80 -62 -20 -115 -36 -116 -36 -2 0 -13
26 -25 58 -12 31 -26 67 -31 80 -12 30 -11 52 1 52 5 0 41 16 81 35 39 19 80
37 92 41 19 6 94 38 152 64 11 5 34 14 50 20 34 12 34 12 215 90 74 32 138 58
142 59 4 1 16 -18 26 -41z m-5713 -723 c17 -1 48 -6 70 -9 22 -3 60 -9 85 -12
25 -3 54 -7 65 -8 11 -2 44 -7 74 -11 30 -3 63 -9 75 -11 12 -2 37 -7 56 -10
46 -6 124 -22 177 -36 39 -9 42 -13 38 -36 -2 -14 -7 -53 -11 -86 -3 -34 -7
-63 -9 -66 -2 -4 -19 -5 -37 -4 -18 1 -91 5 -163 9 -71 3 -170 8 -220 11 -49
2 -126 6 -170 9 -44 2 -80 4 -80 5 0 1 -29 3 -65 6 -36 2 -71 6 -77 9 -12 4
-11 35 2 120 2 11 4 46 4 79 l1 59 78 -7 c42 -4 91 -9 107 -11z m5275 -549
c244 -16 436 -26 555 -29 39 -1 75 -6 81 -9 11 -8 11 -86 -1 -188 -9 -86 -11
-86 -217 -55 -57 8 -114 17 -128 19 -14 3 -45 7 -70 10 -25 3 -58 8 -75 11
-16 2 -48 7 -70 10 -55 8 -105 15 -135 21 -14 2 -45 7 -70 10 -25 3 -47 8 -50
11 -7 6 -7 123 -1 123 3 0 7 11 7 25 3 48 11 55 51 50 21 -2 76 -6 123 -9z
m-4524 -628 c16 -45 30 -85 32 -89 3 -7 -72 -44 -218 -106 -58 -24 -114 -48
-125 -52 -11 -5 -94 -39 -185 -76 -91 -37 -177 -74 -192 -81 -24 -12 -27 -12
-41 10 -9 13 -27 58 -42 101 -14 43 -31 87 -37 98 -13 25 6 42 67 59 22 6 45
13 50 14 29 8 552 176 565 181 8 3 21 7 28 9 8 1 16 5 20 8 3 3 15 6 27 6 18
0 26 -14 51 -82z m4191 -386 c39 -23 74 -42 78 -42 3 0 30 -16 60 -35 30 -19
55 -32 55 -29 0 3 12 -3 28 -14 25 -17 57 -35 213 -120 117 -63 169 -94 169
-100 -1 -7 -34 -68 -95 -171 -27 -46 -57 -65 -67 -43 -1 4 -21 19 -43 32 -90
54 -337 220 -540 363 -86 61 -82 57 -69 65 6 4 20 22 30 41 22 39 32 55 58 94
16 24 21 26 35 14 9 -7 48 -32 88 -55z m-3630 -476 c57 -54 57 -56 5 -114 -16
-18 -46 -52 -65 -75 -19 -23 -43 -51 -54 -63 -47 -54 -187 -212 -258 -290 -11
-12 -42 -47 -68 -77 l-48 -56 -27 22 c-14 12 -59 55 -100 96 l-74 74 75 71
c41 39 128 121 193 181 64 61 165 156 223 212 120 115 98 113 198 19z m2916
-303 c35 -49 90 -126 122 -173 33 -47 63 -86 67 -88 4 -2 8 -9 8 -16 0 -7 9
-21 20 -31 11 -10 20 -24 20 -31 0 -7 3 -14 8 -16 12 -5 162 -215 162 -227 0
-6 -5 -11 -10 -11 -6 0 -20 -8 -31 -18 -10 -11 -32 -25 -47 -33 -15 -8 -29
-17 -32 -20 -3 -3 -27 -18 -54 -32 l-50 -26 -23 34 c-13 19 -23 39 -23 44 0 6
-4 11 -10 11 -5 0 -10 4 -10 9 0 5 -18 38 -40 72 -22 35 -48 80 -58 99 -22 43
-219 377 -238 405 -20 28 -18 31 24 56 20 13 39 25 42 28 4 5 82 50 87 51 1 0
30 -39 66 -87z m-2086 -204 c29 -11 59 -19 67 -19 8 0 17 -4 21 -10 6 -9 -30
-159 -65 -275 -43 -143 -61 -204 -65 -221 -2 -11 -15 -58 -29 -105 -14 -47
-30 -109 -37 -137 -8 -41 -15 -52 -30 -52 -16 0 -229 67 -237 75 -7 6 83 256
175 490 52 132 99 251 104 264 7 17 14 21 27 16 9 -4 41 -16 69 -26z m1104
-117 c0 -15 2 -34 4 -42 5 -24 17 -83 20 -105 9 -61 17 -102 20 -115 2 -8 7
-31 10 -50 3 -19 15 -84 25 -145 20 -116 27 -171 36 -272 5 -55 3 -62 -13 -61
-10 0 -31 -2 -48 -6 -16 -4 -67 -10 -112 -13 l-83 -6 -1 39 c-3 100 -18 298
-24 329 -19 83 -42 455 -29 456 95 6 149 11 151 12 1 2 11 3 23 4 15 1 20 -4
21 -25z"/>
</g>
</svg>
