<svg width="32" height="32" viewBox="0 0 32 32" fill="none" xmlns="http://www.w3.org/2000/svg">
<path fill-rule="evenodd" clip-rule="evenodd" d="M4.66671 15.3333C4.66671 9.44228 9.44234 4.66665 15.3334 4.66665C21.2244 4.66665 26 9.44228 26 15.3333C26 21.2244 21.2244 26 15.3334 26C9.44234 26 4.66671 21.2244 4.66671 15.3333ZM15.3334 3.33331C8.70596 3.33331 3.33337 8.7059 3.33337 15.3333C3.33337 21.9607 8.70596 27.3333 15.3334 27.3333C21.9608 27.3333 27.3334 21.9607 27.3334 15.3333C27.3334 8.7059 21.9608 3.33331 15.3334 3.33331ZM21.855 11.0818C22.0843 10.7937 22.0366 10.3743 21.7485 10.145C21.4605 9.91573 21.041 9.96339 20.8118 10.2515L13.8531 18.9945L9.80961 14.8668C9.55196 14.6038 9.12987 14.5994 8.86685 14.8571C8.60384 15.1147 8.59948 15.5368 8.85714 15.7998L13.4286 20.4665C13.5623 20.603 13.7482 20.6756 13.9391 20.6657C14.1299 20.6559 14.3074 20.5647 14.4264 20.4151L21.855 11.0818Z" fill="#977347"/>
</svg>
