<svg width="102" height="102" viewBox="0 0 102 102" fill="none" xmlns="http://www.w3.org/2000/svg">
<path fill-rule="evenodd" clip-rule="evenodd" d="M51.0093 28.8099C47.4136 20.7233 38.4688 15.4735 28.6089 17.3985C20.9989 18.9042 14.9089 24.9071 13.239 32.3054C11.9008 38.269 13.4089 43.7789 16.5445 48.0701C16.611 48.2341 16.7051 48.3889 16.8257 48.5277L46.9612 83.175L46.9652 83.1796C49.0921 85.6068 52.9115 85.6068 55.0384 83.1796L55.0424 83.175L85.1778 48.5277C85.3006 48.3866 85.3958 48.2288 85.4625 48.0617C88.5594 43.7797 90.1043 38.2761 88.765 32.3073C87.0955 24.875 80.9745 18.8698 73.3935 17.3983C63.5359 15.4743 54.5901 20.7225 51.0093 28.8099ZM82.3585 46.7344C82.4024 46.6473 82.4546 46.5633 82.515 46.4837C85.2851 42.8272 86.6656 38.1325 85.5172 33.0141C84.1266 26.8236 79.0053 21.8252 72.7495 20.6111C62.0531 18.5228 52.6815 26.5041 52.6815 36.6558C52.6815 37.5592 51.9384 38.2919 51.0209 38.2932C50.1033 38.2945 49.358 37.564 49.3553 36.6606C49.3251 26.5043 39.9523 18.5238 29.2581 20.6103C22.9658 21.8561 17.8767 26.8565 16.4863 33.0148C15.3367 38.1393 16.6901 42.8299 19.4834 46.4768C19.5459 46.5585 19.5999 46.6448 19.6451 46.7344L49.4836 81.0404C49.4831 81.0398 49.4842 81.041 49.4836 81.0404C50.2834 81.9508 51.718 81.9528 52.5179 81.0427C52.5173 81.0434 52.5186 81.0419 52.5179 81.0427L82.3585 46.7344Z" fill="#6BCACA"/>
</svg>
