<svg width="24" height="24" viewBox="0 0 24 24" fill="none" xmlns="http://www.w3.org/2000/svg">
<path fill-rule="evenodd" clip-rule="evenodd" d="M12 0C5.37258 0 0 5.37258 0 12C0 18.6274 5.37258 24 12 24C18.6274 24 24 18.6274 24 12C24 5.37258 18.6274 0 12 0ZM9.36175 5.63876C10.0444 5.6077 10.2626 5.6001 12.0007 5.6001H11.9987C13.7374 5.6001 13.9547 5.6077 14.6374 5.63876C15.3187 5.66997 15.7841 5.77783 16.1921 5.9361C16.6134 6.09944 16.9694 6.31811 17.3254 6.67411C17.6814 7.02985 17.9001 7.38692 18.0641 7.80785C18.2214 8.21479 18.3294 8.67986 18.3614 9.3612C18.3921 10.0439 18.4001 10.262 18.4001 12.0002C18.4001 13.7383 18.3921 13.9559 18.3614 14.6386C18.3294 15.3197 18.2214 15.7849 18.0641 16.1919C17.9001 16.6127 17.6814 16.9698 17.3254 17.3256C16.9698 17.6816 16.6133 17.9008 16.1925 18.0642C15.7853 18.2225 15.3197 18.3304 14.6383 18.3616C13.9557 18.3926 13.7382 18.4002 11.9999 18.4002C10.2619 18.4002 10.0439 18.3926 9.36122 18.3616C8.68001 18.3304 8.21481 18.2225 7.8076 18.0642C7.38693 17.9008 7.02986 17.6816 6.67426 17.3256C6.31839 16.9698 6.09972 16.6127 5.93612 16.1918C5.77798 15.7849 5.67011 15.3198 5.63878 14.6385C5.60785 13.9558 5.60011 13.7383 5.60011 12.0002C5.60011 10.262 5.60811 10.0437 5.63865 9.36107C5.66931 8.68 5.77731 8.21479 5.93598 7.80772C6.09998 7.38692 6.31865 7.02985 6.67466 6.67411C7.03039 6.31824 7.38746 6.09957 7.8084 5.9361C8.21534 5.77783 8.68041 5.66997 9.36175 5.63876Z" fill="#977347"/>
<path fill-rule="evenodd" clip-rule="evenodd" d="M11.4266 6.75306C11.5381 6.75289 11.658 6.75294 11.7875 6.753L12.0008 6.75306C13.7096 6.75306 13.9121 6.7592 14.5869 6.78987C15.2109 6.8184 15.5496 6.92267 15.7752 7.01027C16.0739 7.12627 16.2868 7.26494 16.5107 7.48894C16.7347 7.71294 16.8733 7.92628 16.9896 8.22495C17.0772 8.45028 17.1816 8.78895 17.21 9.41296C17.2407 10.0876 17.2474 10.2903 17.2474 11.9983C17.2474 13.7063 17.2407 13.909 17.21 14.5837C17.1815 15.2077 17.0772 15.5464 16.9896 15.7717C16.8736 16.0704 16.7347 16.283 16.5107 16.5069C16.2867 16.7309 16.074 16.8696 15.7752 16.9856C15.5499 17.0736 15.2109 17.1776 14.5869 17.2061C13.9123 17.2368 13.7096 17.2434 12.0008 17.2434C10.2918 17.2434 10.0893 17.2368 9.4146 17.2061C8.7906 17.1773 8.45193 17.073 8.22619 16.9854C7.92752 16.8694 7.71419 16.7308 7.49018 16.5068C7.26618 16.2828 7.12751 16.07 7.01125 15.7712C6.92364 15.5458 6.81924 15.2072 6.79084 14.5831C6.76018 13.9085 6.75404 13.7058 6.75404 11.9967C6.75404 10.2876 6.76018 10.086 6.79084 9.41136C6.81938 8.78735 6.92364 8.44868 7.01125 8.22308C7.12725 7.92441 7.26618 7.71107 7.49018 7.48707C7.71419 7.26307 7.92752 7.1244 8.22619 7.00813C8.45179 6.92013 8.7906 6.81613 9.4146 6.78747C10.005 6.7608 10.2338 6.7528 11.4266 6.75146V6.75306ZM15.4169 7.81539C14.9929 7.81539 14.6489 8.15899 14.6489 8.58313C14.6489 9.00714 14.9929 9.35114 15.4169 9.35114C15.8409 9.35114 16.1849 9.00714 16.1849 8.58313C16.1849 8.15913 15.8409 7.81512 15.4169 7.81512V7.81539ZM8.71412 11.999C8.71412 10.184 10.1857 8.71241 12.0007 8.71234C13.8158 8.71234 15.287 10.184 15.287 11.999C15.287 13.8141 13.8159 15.2851 12.0008 15.2851C10.1857 15.2851 8.71412 13.8141 8.71412 11.999Z" fill="#977347"/>
<path fill-rule="evenodd" clip-rule="evenodd" d="M12.0006 9.86646C13.1787 9.86646 14.1339 10.8215 14.1339 11.9998C14.1339 13.178 13.1787 14.1332 12.0006 14.1332C10.8223 14.1332 9.8672 13.178 9.8672 11.9998C9.8672 10.8215 10.8223 9.86646 12.0006 9.86646V9.86646Z" fill="#977347"/>
</svg>
