<svg width="282" height="64" viewBox="0 0 282 64" fill="none" xmlns="http://www.w3.org/2000/svg">
<path fill-rule="evenodd" clip-rule="evenodd" d="M57.4545 12.8731C54.6737 15.0514 51.8593 17.0081 49.0738 19.1961C49.5829 19.9816 50.1304 20.7576 50.5578 21.5528C53.6267 19.8997 56.6909 18.2274 59.7262 16.4394C63.7892 24.001 64.8458 31.9048 62.6606 40.1796C59.2747 39.1724 55.9224 38.4206 52.5461 37.4422C52.3444 38.3242 51.9842 39.2302 51.6912 40.1266C54.9043 41.6351 58.0932 42.7098 61.3062 44.2086C58.708 51.5485 50.822 58.9896 44.7706 61.2258C43.2961 58.0498 41.9466 54.8594 40.5394 51.6738C39.6317 51.881 38.7624 52.3919 37.8643 52.5606C38.7672 55.9293 39.8094 59.2884 40.7459 62.6523C33.2105 64.8307 25.3917 64.5897 17.1214 60.286C18.7303 57.192 20.3825 54.0931 21.9482 51.0039C21.1509 50.575 20.3296 50.0063 19.518 49.534C17.5249 52.3919 15.4213 55.2594 13.5242 58.1077C6.09926 52.8064 2.39638 45.9195 0.835501 39.3555C0.720236 38.9073 0.552142 38.0977 0.552142 38.0928C0.652998 37.9338 2.84783 37.6639 3.1504 37.6061C5.78228 37.0904 8.3133 36.5265 10.8443 36.088C10.7867 35.1675 10.4601 34.2759 10.5994 33.3313C7.05499 33.3217 3.55863 33.7988 0.0142399 33.8181C-0.153854 26.6131 1.09485 19.2443 7.5977 11.2827C10.3448 13.5382 12.9863 15.8033 15.5318 18.0828C16.2185 17.5093 16.8717 16.5792 17.5681 16.1069C15.4405 13.4562 12.8663 10.8586 10.6138 8.22721C17.6401 1.94275 25.1564 -0.0380048 32.9079 0.000550128C32.8599 3.49941 32.7398 7.00791 32.5477 10.526C33.5034 10.6176 34.4592 10.6706 35.4245 10.8441C36.0441 7.36454 36.4715 3.90906 37.2159 0.415016C41.0869 1.17166 45.4525 2.62229 49.7269 5.53318C52.7863 7.61033 55.4277 10.2128 57.4545 12.8731ZM51.2782 10.1453C49.5444 12.1261 47.8107 14.1309 46.0721 15.9768C46.5091 16.4442 46.9846 16.9117 47.5129 17.3647C49.4148 15.4563 51.3262 13.808 53.2281 11.9285C52.5653 11.3694 51.9026 10.4923 51.283 10.1405M45.3949 6.02476C43.762 9.14289 42.1675 12.261 40.5106 15.3792C35.6406 12.8056 31.0733 12.902 26.6068 13.9141C25.7279 10.5405 24.7049 7.18141 23.7252 3.82231C22.5101 4.3187 21.271 4.62232 20.0799 5.20547C21.4199 8.41999 22.9615 11.6056 24.2534 14.8249C20.7331 16.2322 16.2089 20.4395 14.5472 24.854C11.315 23.4564 8.08757 22.1407 4.87457 20.8395C4.35588 22.0588 4.01969 23.2685 3.60185 24.4781C7.02137 25.5769 10.3833 26.2372 13.7932 27.2734C12.5109 32.0975 13.3081 36.6856 15.4117 41.129C12.386 42.917 9.32667 44.3917 6.32018 46.3002C7.0646 47.3557 7.63612 48.4352 8.42376 49.4906C11.2718 47.5436 14.0861 45.1339 16.9533 43.2833C19.6861 47.2159 24.9546 49.987 28.8016 50.5461C28.0812 53.9919 27.697 57.3992 26.991 60.8451C28.3069 61.0571 29.6373 61.3415 30.9052 61.1776C31.1165 57.6836 31.0637 54.2136 31.3326 50.7099C35.9 50.9316 40.256 49.3605 44.4248 46.0544C46.7349 48.6424 49.0402 51.2256 51.3695 53.8088C52.282 52.9847 53.1897 52.1317 54.083 50.9798C51.552 48.681 48.6031 46.4207 46.2066 44.1074C49.895 39.4374 50.6971 35.1 50.5818 30.8638C54.059 30.8011 57.5121 30.4493 60.9749 30.3337C61.0325 28.9842 60.7635 27.683 60.5234 26.3721C57.1039 27.1143 53.6748 27.7842 50.2408 28.3818C49.3427 24.2998 47.5081 20.3238 42.7246 16.6804C44.6505 13.8321 46.7973 10.9598 48.7184 8.10673C47.5801 7.17659 46.4899 6.66092 45.3901 6.02476M42.3356 4.62232C41.5624 4.35726 40.7699 4.07292 39.9871 3.79339C39.1226 6.3091 38.6135 8.77662 37.7346 11.2923C38.3782 11.6731 38.9929 11.7935 39.6125 11.9815C40.4337 9.53808 41.5816 7.0561 42.3356 4.6175M51.6624 23.8227C51.9122 24.3962 51.9794 24.9938 52.3732 25.5528C54.837 24.695 57.3248 24.0781 59.7742 23.095C59.3948 22.319 59.2459 21.5142 58.8617 20.7383C56.4651 21.8034 54.0494 22.6371 51.6624 23.8227ZM26.943 3.13796C27.5289 5.72596 27.7066 8.35733 28.3934 10.9309C28.9793 10.5742 29.6469 10.8827 30.228 10.5309C29.8774 7.95733 29.791 5.35969 29.5412 2.77651C28.6863 2.96928 27.7978 2.94036 26.943 3.13796ZM60.9557 33.5771C58.4102 33.5096 55.86 33.3843 53.2905 33.153C53.1465 33.8181 52.9976 34.4783 53.1225 35.1145C55.0435 35.3892 57.027 35.688 58.8377 35.953C59.4668 36.0446 60.144 36.2422 60.7828 36.1217C60.9076 35.2687 61.143 34.4012 60.9557 33.5819M14.9314 8.18384C16.5739 10.2851 17.8803 12.4249 19.5084 14.5213C20.0271 14.1117 20.565 13.9237 21.0693 13.4369C19.7437 11.1911 18.4038 8.95012 17.1455 6.69947C16.401 7.1284 15.647 7.53804 14.9314 8.17902M50.6491 42.3146C50.2456 42.8592 50.0775 43.3749 49.6069 43.9243C51.8113 45.5195 53.9917 47.0038 56.177 48.3581C56.59 47.6207 57.1423 46.8641 57.4689 46.1364C55.1972 44.8496 52.9351 43.6833 50.6491 42.3146ZM7.64092 15.6105C7.10302 16.343 6.78604 17.0467 6.26735 17.7744C8.57264 19.1961 10.8587 20.3238 13.1544 21.654C13.505 21.0997 13.8748 20.5359 14.1342 19.9913C11.9585 18.5069 9.80213 17.0129 7.64092 15.6153M44.2375 49.5099C43.6852 49.828 43.1473 50.2087 42.6045 50.5316C44.079 52.7582 45.1596 55.0329 46.6532 57.2546C47.3832 56.8546 48.1036 56.4016 48.824 55.8474C47.1815 53.7461 45.88 51.6063 44.2375 49.5099ZM10.7675 29.0421C8.12119 28.4589 5.50372 28.1312 2.89105 27.8613C2.85744 28.6854 2.81421 29.5095 2.65572 30.3481C5.278 30.6084 7.88586 30.6614 10.5081 30.8156C10.6666 30.2132 10.5994 29.6397 10.7675 29.0421ZM35.4725 53.0907C35.17 53.3317 33.7532 53.1967 33.5803 53.4377C33.6379 53.3606 33.6139 54.2377 33.6283 54.4016C33.7724 56.5847 34.2094 59.3366 34.1902 61.1294C35.0451 61.2547 35.8568 60.9945 36.6732 60.9125C36.5387 58.2763 35.8424 55.7028 35.4725 53.0907ZM11.4351 38.4109C8.94725 39.2398 6.44985 39.9772 3.96206 40.811C4.35588 41.611 4.45673 42.4399 4.94181 43.2255C7.33835 42.1315 9.76852 41.3218 12.141 40.1459C11.7905 39.582 11.7472 38.9844 11.4351 38.4157M24.191 51.9774C23.2545 54.4594 22.1307 56.9558 21.4103 59.4089C22.2219 59.5583 23.0864 60.1173 23.874 60.0981C24.4359 57.6016 25.3821 55.0522 25.9296 52.5509C25.3533 52.4497 24.7721 52.2425 24.1862 51.9726M16.2377 46.6665C14.3599 48.546 12.4676 50.228 10.5802 52.0304C11.0845 52.6666 11.704 53.2835 12.4676 53.8907C14.1582 51.8907 16.1801 49.8184 17.6641 47.9292C17.0542 47.5243 16.8285 47.0761 16.2329 46.6665" fill="white"/>
<path d="M111.99 32.9758L111.956 33.0866C111.663 34.1035 111.361 35.0047 111.058 35.7855C110.751 36.5662 110.434 37.2313 110.098 37.771C109.761 38.3205 109.372 38.8747 108.931 39.4337C108.201 40.3205 107.346 41.0145 106.356 41.5061C105.372 42.0025 104.325 42.2482 103.215 42.2482H97.6106V25.3323C97.6106 23.9732 97.9324 22.9949 98.5519 22.3732C99.1715 21.7515 100.137 21.4286 101.482 21.4286H103.239V20.5466H87.7987V21.4286H88.7448C91.3815 21.4527 92.611 22.6864 92.6302 25.3323V38.3108C92.6062 40.9807 91.3815 42.2241 88.7448 42.2482H87.7603L87.7987 42.9904V43.135H112.845V32.9758H111.995H111.99Z" fill="white"/>
<path d="M146.675 41.9683C146.252 41.7996 145.873 41.5298 145.532 41.149C145.191 40.7683 144.874 40.2815 144.595 39.6791L135.61 20.1077H134.827L127.723 36.2092C126.657 38.6189 125.567 40.2526 124.477 41.096C124.006 41.4671 123.584 41.7225 123.214 41.8767C122.849 42.0261 122.335 42.1466 121.691 42.2189L121.557 42.2334V43.1298H130.898V42.2237H130.754C130.336 42.1996 130.019 42.1563 129.808 42.1033C129.601 42.0502 129.356 41.9394 129.078 41.7755C128.67 41.5442 128.333 41.202 128.079 40.7442C127.82 40.2815 127.695 39.8237 127.695 39.361C127.695 38.8068 127.805 38.2526 128.031 37.7032L128.708 36.1321H137.934L138.261 36.8598C138.337 37.0044 138.405 37.1441 138.462 37.2887C138.53 37.4381 138.573 37.549 138.611 37.6212C139.125 38.7345 139.461 39.5056 139.61 39.9249C139.759 40.3394 139.831 40.6864 139.831 40.9611C139.831 41.4045 139.668 41.6888 139.322 41.896C138.976 42.1033 138.385 42.2189 137.559 42.2189H135.725V43.1346H148.932V42.2189H148.193C147.602 42.2189 147.098 42.1322 146.675 41.9635V41.9683ZM137.478 35.2501H129.107L133.242 25.8524L137.483 35.2501H137.478Z" fill="white"/>
<path d="M247.21 32.9758L247.181 33.0866C246.883 34.1035 246.581 35.0047 246.278 35.7855C245.975 36.5662 245.654 37.2313 245.322 37.7711C244.986 38.3205 244.597 38.8747 244.155 39.4337C243.43 40.3205 242.57 41.0097 241.581 41.5061C240.592 42.0025 239.549 42.2482 238.435 42.2482H232.831V25.3323C232.831 23.9732 233.152 22.9949 233.772 22.3732C234.391 21.7515 235.357 21.4286 236.701 21.4286H238.454V20.5466H223.014V21.4286H223.955C226.597 21.4527 227.821 22.6864 227.845 25.3323V38.3108C227.821 40.9807 226.597 42.2241 223.955 42.2482H222.971L223.014 42.9904L223.023 43.1302H248.06V32.971H247.21V32.9758Z" fill="white"/>
<path d="M213.346 32.5948C212.659 31.9008 211.819 31.3418 210.839 30.9225C209.859 30.5032 208.327 30.0213 206.224 29.4767L204.984 29.1586L204.206 28.9658C204.072 28.9466 203.813 28.8743 203.433 28.7586C202.026 28.4164 200.936 28.1321 200.163 27.8959C199.389 27.6646 198.76 27.4285 198.275 27.1875C197.79 26.9465 197.425 26.7007 197.175 26.4501C196.623 25.9296 196.364 25.332 196.359 24.6332C196.359 24.267 196.45 23.8814 196.647 23.4718C196.839 23.0621 197.098 22.6958 197.43 22.3681C197.891 21.9055 198.453 21.5585 199.125 21.3223C199.793 21.0862 200.561 20.9657 201.43 20.9657C202.593 20.9657 203.741 21.1199 204.879 21.4284C206.017 21.7368 207.045 22.1609 207.957 22.6958C208.87 23.2356 209.629 23.8573 210.234 24.5658C211.065 25.5778 211.814 26.9947 212.481 28.8261L212.515 28.9273H213.327V20.9802H212.505L212.477 21.0862C212.116 22.2862 211.579 22.8115 210.839 22.8115C210.57 22.8115 209.946 22.5946 209.048 22.1416C206.435 20.7826 203.904 20.103 201.459 20.103C199.841 20.103 198.362 20.3826 197.026 20.9416C195.696 21.5055 194.644 22.2862 193.895 23.2934C193.146 24.3007 192.771 25.4477 192.771 26.7104C192.771 27.7658 193.112 28.7393 193.789 29.6116C194.241 30.2285 194.784 30.7442 195.408 31.149C196.032 31.549 196.882 31.949 197.958 32.3442C198.919 32.7201 200.643 33.2406 203.126 33.9153L204.716 34.3443C206.017 34.6961 207.04 34.9997 207.78 35.2503C208.524 35.5057 209.124 35.7515 209.585 35.9925C210.046 36.2335 210.421 36.4937 210.704 36.7636C211.324 37.3901 211.627 38.0744 211.627 38.8407C211.627 39.5733 211.401 40.2239 210.945 40.807C210.484 41.3902 209.845 41.848 209.009 42.1805C208.178 42.5131 207.256 42.6818 206.243 42.6818C205.105 42.6818 203.904 42.4745 202.631 42.0649C201.363 41.6504 200.143 41.0769 198.986 40.3347C197.824 39.5877 196.873 38.7877 196.133 37.9299C194.899 36.46 194.178 34.831 193.957 33.0286L193.943 32.8985H193.103V43.5107H193.929L193.957 43.395C194.121 42.6914 194.447 42.1613 194.942 41.7854C195.437 41.4095 196.042 41.2167 196.767 41.2167C197.142 41.2167 197.55 41.2745 197.982 41.395C198.414 41.5155 199.063 41.742 199.903 42.0842C201.21 42.6384 202.324 43.0191 203.241 43.2312C204.158 43.4432 205.138 43.5444 206.18 43.5444C207.664 43.5444 208.995 43.342 210.162 42.9276C211.329 42.5179 212.318 41.901 213.12 41.0769C213.735 40.4841 214.215 39.7853 214.551 38.9949C214.888 38.2094 215.056 37.419 215.056 36.6286C215.056 35.8334 214.907 35.0864 214.604 34.3973C214.306 33.7081 213.884 33.1057 213.336 32.59L213.346 32.5948Z" fill="white"/>
<path d="M169.036 21.284V21.4334H169.805C171.053 21.4334 171.971 21.7129 172.566 22.243C172.902 22.5129 173.147 22.8358 173.316 23.2262C173.484 23.6214 173.608 24.1708 173.695 24.86V38.3156C173.695 39.6651 173.368 40.6386 172.744 41.2699C172.12 41.8964 171.15 42.2241 169.805 42.2241H169.036V43.1398H183.32V42.2241H182.551C181.216 42.2241 180.251 41.8964 179.631 41.2699C179.007 40.6434 178.68 39.6699 178.68 38.3156V25.3323C178.68 23.9732 179.002 22.9949 179.621 22.3732C180.241 21.7515 181.206 21.4286 182.551 21.4286H183.32V20.5466H169.036V21.2792V21.284Z" fill="white"/>
<path d="M281.088 42.2237C280.497 42.2237 279.993 42.137 279.57 41.9683C279.148 41.7996 278.768 41.5298 278.427 41.149C278.082 40.7683 277.769 40.2815 277.491 39.6839L268.5 20.1077H267.717L260.614 36.2092C259.553 38.6237 258.458 40.2526 257.367 41.1008C256.897 41.4719 256.474 41.7274 256.104 41.8816C255.735 42.031 255.225 42.1466 254.582 42.2237L254.447 42.2382V43.1346H263.789V42.2286H263.645C263.227 42.1996 262.91 42.1611 262.698 42.1081C262.487 42.0551 262.242 41.9442 261.964 41.7804C261.551 41.549 261.219 41.2069 260.965 40.749C260.705 40.2864 260.581 39.8285 260.581 39.3659C260.581 38.8116 260.691 38.2574 260.917 37.708L261.594 36.1369H270.82L271.146 36.8646C271.223 37.0092 271.291 37.1489 271.353 37.2935C271.415 37.4429 271.463 37.5538 271.502 37.6212C272.016 38.7345 272.352 39.5104 272.506 39.9249C272.654 40.3442 272.727 40.6912 272.727 40.9611C272.727 41.3996 272.563 41.6888 272.217 41.896C271.872 42.1033 271.276 42.2237 270.455 42.2189H268.62V43.1346H281.828V42.2189H281.088V42.2237ZM270.368 35.2501H261.997L266.132 25.8524L270.373 35.2501H270.368Z" fill="white"/>
</svg>
