<svg width="195" height="24" viewBox="0 0 195 24" fill="none" xmlns="http://www.w3.org/2000/svg">
<path d="M24.9899 12.9758L24.9562 13.0866C24.6633 14.1035 24.3607 15.0047 24.0581 15.7855C23.7508 16.5662 23.4338 17.2313 23.0976 17.771C22.7614 18.3205 22.3724 18.8747 21.9305 19.4337C21.2005 20.3205 20.3457 21.0145 19.3563 21.5061C18.3717 22.0025 17.3248 22.2482 16.2153 22.2482H10.6106V5.33226C10.6106 3.9732 10.9324 2.99487 11.5519 2.37317C12.1715 1.75147 13.1368 1.42857 14.4816 1.42857H16.2393V0.546631H0.798676V1.42857H1.7448C4.38148 1.45267 5.61098 2.68643 5.63019 5.33226V18.3108C5.60617 20.9807 4.38148 22.2241 1.7448 22.2482H0.760254L0.798676 22.9904V23.135H25.8447V12.9758H24.9947H24.9899Z" fill="white"/>
<path d="M59.6749 21.9683C59.2523 21.7996 58.8729 21.5298 58.5319 21.149C58.1909 20.7683 57.8739 20.2815 57.5954 19.6791L48.6095 0.107666H47.8267L40.7235 16.2092C39.6573 18.6189 38.5671 20.2526 37.4769 21.096C37.0062 21.4671 36.5836 21.7225 36.2138 21.8767C35.8487 22.0261 35.3349 22.1466 34.6913 22.2189L34.5568 22.2334V23.1298H43.8981V22.2237H43.754C43.3362 22.1996 43.0192 22.1563 42.8079 22.1033C42.6013 22.0502 42.3564 21.9394 42.0778 21.7755C41.6696 21.5442 41.3334 21.202 41.0789 20.7442C40.8195 20.2815 40.6947 19.8237 40.6947 19.361C40.6947 18.8068 40.8051 18.2526 41.0309 17.7032L41.708 16.1321H50.934L51.2606 16.8598C51.3375 17.0044 51.4047 17.1441 51.4623 17.2887C51.5296 17.4381 51.5728 17.549 51.6112 17.6212C52.1251 18.7345 52.4613 19.5056 52.6102 19.9249C52.759 20.3394 52.8311 20.6864 52.8311 20.9611C52.8311 21.4045 52.6678 21.6888 52.322 21.896C51.9762 22.1033 51.3855 22.2189 50.5594 22.2189H48.7248V23.1346H61.9322V22.2189H61.1926C60.6019 22.2189 60.0976 22.1322 59.6749 21.9635V21.9683ZM50.4778 15.2501H42.1067L46.2418 5.85235L50.4826 15.2501H50.4778Z" fill="white"/>
<path d="M160.21 12.9758L160.181 13.0866C159.883 14.1035 159.581 15.0047 159.278 15.7855C158.975 16.5662 158.654 17.2313 158.322 17.7711C157.986 18.3205 157.597 18.8747 157.155 19.4337C156.43 20.3205 155.57 21.0097 154.581 21.5061C153.592 22.0025 152.549 22.2482 151.435 22.2482H145.831V5.33226C145.831 3.9732 146.152 2.99487 146.772 2.37317C147.391 1.75147 148.357 1.42857 149.701 1.42857H151.454V0.546631H136.014V1.42857H136.955C139.597 1.45267 140.821 2.68643 140.845 5.33226V18.3108C140.821 20.9807 139.597 22.2241 136.955 22.2482H135.971L136.014 22.9904L136.023 23.1302H161.06V12.971H160.21V12.9758Z" fill="white"/>
<path d="M126.346 12.5948C125.659 11.9008 124.819 11.3418 123.839 10.9225C122.859 10.5032 121.327 10.0213 119.224 9.4767L117.984 9.15862L117.206 8.96584C117.072 8.94657 116.813 8.87428 116.433 8.75861C115.026 8.41644 113.936 8.1321 113.163 7.89595C112.389 7.66462 111.76 7.42847 111.275 7.1875C110.79 6.94653 110.425 6.70074 110.175 6.45014C109.623 5.92964 109.364 5.33204 109.359 4.63323C109.359 4.26696 109.45 3.88141 109.647 3.47177C109.839 3.06212 110.098 2.69585 110.43 2.36813C110.891 1.90547 111.453 1.55848 112.125 1.32233C112.793 1.08618 113.561 0.965695 114.43 0.965695C115.593 0.965695 116.741 1.11991 117.879 1.42835C119.017 1.73679 120.045 2.1609 120.957 2.69585C121.87 3.23562 122.629 3.85732 123.234 4.56576C124.065 5.57783 124.814 6.99472 125.481 8.82608L125.515 8.92729H126.327V0.980152H125.505L125.477 1.08618C125.116 2.2862 124.579 2.81151 123.839 2.81151C123.57 2.81151 122.946 2.59464 122.048 2.14162C119.435 0.782558 116.904 0.103027 114.459 0.103027C112.841 0.103027 111.362 0.382551 110.026 0.941598C108.696 1.50546 107.644 2.2862 106.895 3.29345C106.146 4.3007 105.771 5.44771 105.771 6.71038C105.771 7.76582 106.112 8.73933 106.789 9.61164C107.241 10.2285 107.784 10.7442 108.408 11.149C109.032 11.549 109.882 11.949 110.958 12.3442C111.919 12.7201 113.643 13.2406 116.126 13.9153L117.716 14.3443C119.017 14.6961 120.04 14.9997 120.78 15.2503C121.524 15.5057 122.124 15.7515 122.585 15.9925C123.046 16.2335 123.421 16.4937 123.704 16.7636C124.324 17.3901 124.627 18.0744 124.627 18.8407C124.627 19.5733 124.401 20.2239 123.945 20.807C123.484 21.3902 122.845 21.848 122.009 22.1805C121.178 22.5131 120.256 22.6818 119.243 22.6818C118.105 22.6818 116.904 22.4745 115.631 22.0649C114.363 21.6504 113.143 21.0769 111.986 20.3347C110.824 19.5877 109.873 18.7877 109.133 17.9299C107.899 16.46 107.178 14.831 106.957 13.0286L106.943 12.8985H106.103V23.5107H106.929L106.957 23.395C107.121 22.6914 107.447 22.1613 107.942 21.7854C108.437 21.4095 109.042 21.2167 109.767 21.2167C110.142 21.2167 110.55 21.2745 110.982 21.395C111.414 21.5155 112.063 21.742 112.903 22.0842C114.21 22.6384 115.324 23.0191 116.241 23.2312C117.158 23.4432 118.138 23.5444 119.18 23.5444C120.664 23.5444 121.995 23.342 123.162 22.9276C124.329 22.5179 125.318 21.901 126.12 21.0769C126.735 20.4841 127.215 19.7853 127.551 18.9949C127.888 18.2094 128.056 17.419 128.056 16.6286C128.056 15.8334 127.907 15.0864 127.604 14.3973C127.306 13.7081 126.884 13.1057 126.336 12.59L126.346 12.5948Z" fill="white"/>
<path d="M82.0363 1.28399V1.43339H82.8048C84.0535 1.43339 84.9708 1.71292 85.5663 2.24305C85.9025 2.51293 86.1474 2.83583 86.3155 3.2262C86.4836 3.62139 86.6085 4.17079 86.6949 4.85996V18.3156C86.6949 19.6651 86.3683 20.6386 85.744 21.2699C85.1196 21.8964 84.1495 22.2241 82.8048 22.2241H82.0363V23.1398H96.3195V22.2241H95.5511C94.2159 22.2241 93.2506 21.8964 92.6311 21.2699C92.0067 20.6434 91.6801 19.6699 91.6801 18.3156V5.33226C91.6801 3.9732 92.0019 2.99487 92.6215 2.37317C93.241 1.75147 94.2063 1.42857 95.5511 1.42857H96.3195V0.546631H82.0363V1.27917V1.28399Z" fill="white"/>
<path d="M194.088 22.2237C193.497 22.2237 192.993 22.137 192.57 21.9683C192.148 21.7996 191.768 21.5298 191.427 21.149C191.082 20.7683 190.769 20.2815 190.491 19.6839L181.5 0.107666H180.717L173.614 16.2092C172.553 18.6237 171.458 20.2526 170.367 21.1008C169.897 21.4719 169.474 21.7274 169.104 21.8816C168.735 22.031 168.225 22.1466 167.582 22.2237L167.447 22.2382V23.1346H176.789V22.2286H176.645C176.227 22.1996 175.91 22.1611 175.698 22.1081C175.487 22.0551 175.242 21.9442 174.964 21.7804C174.551 21.549 174.219 21.2069 173.965 20.749C173.705 20.2864 173.581 19.8285 173.581 19.3659C173.581 18.8116 173.691 18.2574 173.917 17.708L174.594 16.1369H183.82L184.146 16.8646C184.223 17.0092 184.291 17.1489 184.353 17.2935C184.415 17.4429 184.463 17.5538 184.502 17.6212C185.016 18.7345 185.352 19.5104 185.506 19.9249C185.654 20.3442 185.727 20.6912 185.727 20.9611C185.727 21.3996 185.563 21.6888 185.217 21.896C184.872 22.1033 184.276 22.2237 183.455 22.2189H181.62V23.1346H194.828V22.2189H194.088V22.2237ZM183.368 15.2501H174.997L179.132 5.85235L183.373 15.2501H183.368Z" fill="white"/>
</svg>
