<svg width="64" height="64" viewBox="0 0 64 64" fill="none" xmlns="http://www.w3.org/2000/svg">
<path fill-rule="evenodd" clip-rule="evenodd" d="M57.4545 12.8731C54.6737 15.0514 51.8593 17.0081 49.0738 19.1961C49.5829 19.9816 50.1304 20.7576 50.5578 21.5528C53.6267 19.8997 56.6909 18.2274 59.7262 16.4394C63.7892 24.001 64.8458 31.9048 62.6606 40.1796C59.2747 39.1724 55.9224 38.4206 52.5461 37.4422C52.3444 38.3242 51.9842 39.2302 51.6912 40.1266C54.9043 41.6351 58.0932 42.7098 61.3062 44.2086C58.708 51.5485 50.822 58.9896 44.7706 61.2258C43.2961 58.0498 41.9466 54.8594 40.5394 51.6738C39.6317 51.881 38.7624 52.3919 37.8643 52.5606C38.7672 55.9293 39.8094 59.2884 40.7459 62.6523C33.2105 64.8307 25.3917 64.5897 17.1214 60.286C18.7303 57.192 20.3825 54.0931 21.9482 51.0039C21.1509 50.575 20.3296 50.0063 19.518 49.534C17.5249 52.3919 15.4213 55.2594 13.5242 58.1077C6.09926 52.8064 2.39638 45.9195 0.835501 39.3555C0.720236 38.9073 0.552142 38.0977 0.552142 38.0928C0.652998 37.9338 2.84783 37.6639 3.1504 37.6061C5.78228 37.0904 8.3133 36.5265 10.8443 36.088C10.7867 35.1675 10.4601 34.2759 10.5994 33.3313C7.05499 33.3217 3.55863 33.7988 0.0142399 33.8181C-0.153854 26.6131 1.09485 19.2443 7.5977 11.2827C10.3448 13.5382 12.9863 15.8033 15.5318 18.0828C16.2185 17.5093 16.8717 16.5792 17.5681 16.1069C15.4405 13.4562 12.8663 10.8586 10.6138 8.22721C17.6401 1.94275 25.1564 -0.0380048 32.9079 0.000550128C32.8599 3.49941 32.7398 7.00791 32.5477 10.526C33.5034 10.6176 34.4592 10.6706 35.4245 10.8441C36.0441 7.36454 36.4715 3.90906 37.2159 0.415016C41.0869 1.17166 45.4525 2.62229 49.7269 5.53318C52.7863 7.61033 55.4277 10.2128 57.4545 12.8731ZM51.2782 10.1453C49.5444 12.1261 47.8107 14.1309 46.0721 15.9768C46.5091 16.4442 46.9846 16.9117 47.5129 17.3647C49.4148 15.4563 51.3262 13.808 53.2281 11.9285C52.5653 11.3694 51.9026 10.4923 51.283 10.1405M45.3949 6.02476C43.762 9.14289 42.1675 12.261 40.5106 15.3792C35.6406 12.8056 31.0733 12.902 26.6068 13.9141C25.7279 10.5405 24.7049 7.18141 23.7252 3.82231C22.5101 4.3187 21.271 4.62232 20.0799 5.20547C21.4199 8.41999 22.9615 11.6056 24.2534 14.8249C20.7331 16.2322 16.2089 20.4395 14.5472 24.854C11.315 23.4564 8.08757 22.1407 4.87457 20.8395C4.35588 22.0588 4.01969 23.2685 3.60185 24.4781C7.02137 25.5769 10.3833 26.2372 13.7932 27.2734C12.5109 32.0975 13.3081 36.6856 15.4117 41.129C12.386 42.917 9.32667 44.3917 6.32018 46.3002C7.0646 47.3557 7.63612 48.4352 8.42376 49.4906C11.2718 47.5436 14.0861 45.1339 16.9533 43.2833C19.6861 47.2159 24.9546 49.987 28.8016 50.5461C28.0812 53.9919 27.697 57.3992 26.991 60.8451C28.3069 61.0571 29.6373 61.3415 30.9052 61.1776C31.1165 57.6836 31.0637 54.2136 31.3326 50.7099C35.9 50.9316 40.256 49.3605 44.4248 46.0544C46.7349 48.6424 49.0402 51.2256 51.3695 53.8088C52.282 52.9847 53.1897 52.1317 54.083 50.9798C51.552 48.681 48.6031 46.4207 46.2066 44.1074C49.895 39.4374 50.6971 35.1 50.5818 30.8638C54.059 30.8011 57.5121 30.4493 60.9749 30.3337C61.0325 28.9842 60.7635 27.683 60.5234 26.3721C57.1039 27.1143 53.6748 27.7842 50.2408 28.3818C49.3427 24.2998 47.5081 20.3238 42.7246 16.6804C44.6505 13.8321 46.7973 10.9598 48.7184 8.10673C47.5801 7.17659 46.4899 6.66092 45.3901 6.02476M42.3356 4.62232C41.5624 4.35726 40.7699 4.07292 39.9871 3.79339C39.1226 6.3091 38.6135 8.77662 37.7346 11.2923C38.3782 11.6731 38.9929 11.7935 39.6125 11.9815C40.4337 9.53808 41.5816 7.0561 42.3356 4.6175M51.6624 23.8227C51.9122 24.3962 51.9794 24.9938 52.3732 25.5528C54.837 24.695 57.3248 24.0781 59.7742 23.095C59.3948 22.319 59.2459 21.5142 58.8617 20.7383C56.4651 21.8034 54.0494 22.6371 51.6624 23.8227ZM26.943 3.13796C27.5289 5.72596 27.7066 8.35733 28.3934 10.9309C28.9793 10.5742 29.6469 10.8827 30.228 10.5309C29.8774 7.95733 29.791 5.35969 29.5412 2.77651C28.6863 2.96928 27.7978 2.94036 26.943 3.13796ZM60.9557 33.5771C58.4102 33.5096 55.86 33.3843 53.2905 33.153C53.1465 33.8181 52.9976 34.4783 53.1225 35.1145C55.0435 35.3892 57.027 35.688 58.8377 35.953C59.4668 36.0446 60.144 36.2422 60.7828 36.1217C60.9076 35.2687 61.143 34.4012 60.9557 33.5819M14.9314 8.18384C16.5739 10.2851 17.8803 12.4249 19.5084 14.5213C20.0271 14.1117 20.565 13.9237 21.0693 13.4369C19.7437 11.1911 18.4038 8.95012 17.1455 6.69947C16.401 7.1284 15.647 7.53804 14.9314 8.17902M50.6491 42.3146C50.2456 42.8592 50.0775 43.3749 49.6069 43.9243C51.8113 45.5195 53.9917 47.0038 56.177 48.3581C56.59 47.6207 57.1423 46.8641 57.4689 46.1364C55.1972 44.8496 52.9351 43.6833 50.6491 42.3146ZM7.64092 15.6105C7.10302 16.343 6.78604 17.0467 6.26735 17.7744C8.57264 19.1961 10.8587 20.3238 13.1544 21.654C13.505 21.0997 13.8748 20.5359 14.1342 19.9913C11.9585 18.5069 9.80213 17.0129 7.64092 15.6153M44.2375 49.5099C43.6852 49.828 43.1473 50.2087 42.6045 50.5316C44.079 52.7582 45.1596 55.0329 46.6532 57.2546C47.3832 56.8546 48.1036 56.4016 48.824 55.8474C47.1815 53.7461 45.88 51.6063 44.2375 49.5099ZM10.7675 29.0421C8.12119 28.4589 5.50372 28.1312 2.89105 27.8613C2.85744 28.6854 2.81421 29.5095 2.65572 30.3481C5.278 30.6084 7.88586 30.6614 10.5081 30.8156C10.6666 30.2132 10.5994 29.6397 10.7675 29.0421ZM35.4725 53.0907C35.17 53.3317 33.7532 53.1967 33.5803 53.4377C33.6379 53.3606 33.6139 54.2377 33.6283 54.4016C33.7724 56.5847 34.2094 59.3366 34.1902 61.1294C35.0451 61.2547 35.8568 60.9945 36.6732 60.9125C36.5387 58.2763 35.8424 55.7028 35.4725 53.0907ZM11.4351 38.4109C8.94725 39.2398 6.44985 39.9772 3.96206 40.811C4.35588 41.611 4.45673 42.4399 4.94181 43.2255C7.33835 42.1315 9.76852 41.3218 12.141 40.1459C11.7905 39.582 11.7472 38.9844 11.4351 38.4157M24.191 51.9774C23.2545 54.4594 22.1307 56.9558 21.4103 59.4089C22.2219 59.5583 23.0864 60.1173 23.874 60.0981C24.4359 57.6016 25.3821 55.0522 25.9296 52.5509C25.3533 52.4497 24.7721 52.2425 24.1862 51.9726M16.2377 46.6665C14.3599 48.546 12.4676 50.228 10.5802 52.0304C11.0845 52.6666 11.704 53.2835 12.4676 53.8907C14.1582 51.8907 16.1801 49.8184 17.6641 47.9292C17.0542 47.5243 16.8285 47.0761 16.2329 46.6665" fill="white"/>
</svg>
