<svg width="36" height="36" viewBox="0 0 36 36" fill="none" xmlns="http://www.w3.org/2000/svg">
<rect width="36" height="36" rx="18" fill="#977347"/>
<path fill-rule="evenodd" clip-rule="evenodd" d="M10.5 12.4854C10.5 12.3094 10.6427 12.1667 10.8186 12.1667H25.4755C25.6515 12.1667 25.7941 12.3094 25.7941 12.4854C25.7941 12.6613 25.6515 12.804 25.4755 12.804H10.8186C10.6427 12.804 10.5 12.6613 10.5 12.4854ZM10.5 22.6814C10.5 22.5055 10.6427 22.3628 10.8186 22.3628H25.4755C25.6515 22.3628 25.7941 22.5055 25.7941 22.6814C25.7941 22.8574 25.6515 23.0001 25.4755 23.0001H10.8186C10.6427 23.0001 10.5 22.8574 10.5 22.6814ZM10.8186 17.2648C10.6427 17.2648 10.5 17.4075 10.5 17.5834C10.5 17.7594 10.6427 17.9021 10.8186 17.9021H25.4755C25.6515 17.9021 25.7941 17.7594 25.7941 17.5834C25.7941 17.4075 25.6515 17.2648 25.4755 17.2648H10.8186Z" fill="white"/>
</svg>
