<svg width="56" height="44" viewBox="0 0 56 44" fill="none" xmlns="http://www.w3.org/2000/svg">
<path d="M31.471 43.976L39.919 13.256L42.735 24.776C39.0657 24.776 36.079 23.7093 33.775 21.576C31.471 19.4427 30.319 16.4987 30.319 12.744C30.319 9.07467 31.5137 6.088 33.903 3.784C36.207 1.56534 39.1083 0.456001 42.607 0.456001C46.191 0.456002 49.1777 1.56534 51.567 3.78401C53.871 6.088 55.023 9.07467 55.023 12.744C55.023 13.8533 54.9377 14.92 54.767 15.944C54.5963 17.0533 54.255 18.3333 53.743 19.784C53.231 21.2347 52.5057 23.1547 51.567 25.544L44.143 43.976L31.471 43.976ZM1.263 43.976L9.711 13.256L12.527 24.776C8.85767 24.776 5.871 23.7093 3.567 21.576C1.263 19.4427 0.110998 16.4987 0.110998 12.744C0.110999 9.07467 1.30567 6.088 3.695 3.784C5.999 1.56533 8.90033 0.455998 12.399 0.455999C15.983 0.455999 18.9697 1.56533 21.359 3.784C23.663 6.088 24.815 9.07467 24.815 12.744C24.815 13.8533 24.7297 14.92 24.559 15.944C24.3883 17.0533 24.047 18.3333 23.535 19.784C23.023 21.2347 22.2977 23.1547 21.359 25.544L13.935 43.976L1.263 43.976Z" fill="#6BCACA"/>
</svg>
