<svg width="56" height="44" viewBox="0 0 56 44" fill="none" xmlns="http://www.w3.org/2000/svg">
<path d="M24.529 0.0239944L16.081 30.744L13.265 19.224C16.9343 19.224 19.921 20.2907 22.225 22.424C24.529 24.5573 25.681 27.5013 25.681 31.256C25.681 34.9253 24.4863 37.912 22.097 40.216C19.793 42.4347 16.8917 43.544 13.393 43.544C9.809 43.544 6.82233 42.4347 4.433 40.216C2.129 37.912 0.977 34.9253 0.977 31.256C0.977 30.1467 1.06233 29.08 1.233 28.056C1.40367 26.9467 1.745 25.6667 2.257 24.216C2.769 22.7653 3.49433 20.8453 4.433 18.456L11.857 0.0239944H24.529ZM54.737 0.0239944L46.289 30.744L43.473 19.224C47.1423 19.224 50.129 20.2907 52.433 22.424C54.737 24.5573 55.889 27.5013 55.889 31.256C55.889 34.9253 54.6943 37.912 52.305 40.216C50.001 42.4347 47.0997 43.544 43.601 43.544C40.017 43.544 37.0303 42.4347 34.641 40.216C32.337 37.912 31.185 34.9253 31.185 31.256C31.185 30.1467 31.2703 29.08 31.441 28.056C31.6117 26.9467 31.953 25.6667 32.465 24.216C32.977 22.7653 33.7023 20.8453 34.641 18.456L42.065 0.0239944H54.737Z" fill="#6BCACA"/>
</svg>
