<svg width="13" height="10" viewBox="0 0 13 10" fill="none" xmlns="http://www.w3.org/2000/svg">
<path d="M4.89934 4.676L6.13134 0.223999H3.35934L1.73534 4.256C1.09134 5.796 0.979344 6.328 0.979344 7.056C0.979344 8.652 2.12734 9.744 3.69534 9.744C5.23534 9.744 6.38334 8.68 6.38334 7.056C6.38334 5.908 5.82334 5.068 4.89934 4.676ZM11.5073 4.676L12.7393 0.223999H9.96734L8.34334 4.256C7.69934 5.796 7.58734 6.328 7.58734 7.056C7.58734 8.652 8.73534 9.744 10.3033 9.744C11.8433 9.744 12.9913 8.68 12.9913 7.056C12.9913 5.908 12.4313 5.068 11.5073 4.676Z" fill="#F2962D"/>
</svg>
